<svg width="64" height="64" viewBox="0 0 64 64" fill="none" xmlns="http://www.w3.org/2000/svg">
<path d="M30.5098 4.33249C31.3048 3.44448 32.6951 3.44448 33.4901 4.33249L37.4003 8.70032C37.8054 9.15289 38.3943 9.39681 39.0008 9.36328L44.8542 9.03968C46.0443 8.97389 47.0274 9.95698 46.9616 11.147L46.638 17.0005C46.6045 17.607 46.8484 18.1958 47.3009 18.601L51.6688 22.5112C52.5568 23.3062 52.5568 24.6965 51.6688 25.4914L47.3009 29.4016C46.8484 29.8068 46.6045 30.3956 46.638 31.0021L46.9616 36.8556C47.0274 38.0456 46.0443 39.0287 44.8542 38.9629L39.0008 38.6393C38.3943 38.6058 37.8054 38.8497 37.4003 39.3023L33.4901 43.6701C32.6951 44.5581 31.3048 44.5581 30.5098 43.6701L26.5996 39.3023C26.1945 38.8497 25.6056 38.6058 24.9991 38.6393L19.1457 38.9629C17.9556 39.0287 16.9725 38.0456 17.0383 36.8556L17.3619 31.0021C17.3955 30.3956 17.1515 29.8068 16.699 29.4016L12.3311 25.4914C11.4431 24.6965 11.4431 23.3061 12.3311 22.5112L16.699 18.601C17.1515 18.1958 17.3955 17.607 17.3619 17.0005L17.0383 11.147C16.9725 9.95698 17.9556 8.97389 19.1457 9.03968L24.9991 9.36328C25.6056 9.39681 26.1945 9.15289 26.5996 8.70032L30.5098 4.33249Z" stroke="#156155" stroke-width="3"/>
<path d="M40 21.332L30.4 29.332L24 23.9987" stroke="#156155" stroke-width="3" stroke-linecap="round" stroke-linejoin="round"/>
<path d="M21.334 40.0205L21.3334 56L32 49.3333L42.6667 56L42.6673 40" stroke="#156155" stroke-width="3" stroke-linecap="round" stroke-linejoin="round"/>
</svg>
