<svg width="65" height="65" viewBox="0 0 65 65" fill="none" xmlns="http://www.w3.org/2000/svg">
<path d="M36.5625 31.1445C36.5625 33.3882 34.7437 35.207 32.5 35.207C30.2563 35.207 28.4375 33.3882 28.4375 31.1445C28.4375 28.9009 30.2563 27.082 32.5 27.082C34.7437 27.082 36.5625 28.9009 36.5625 31.1445Z" fill="#156155"/>
<path d="M48.75 31.1445C48.75 33.3882 46.9312 35.207 44.6875 35.207C42.4438 35.207 40.625 33.3882 40.625 31.1445C40.625 28.9009 42.4438 27.082 44.6875 27.082C46.9312 27.082 48.75 28.9009 48.75 31.1445Z" fill="#156155"/>
<path d="M24.375 31.1445C24.375 33.3882 22.5562 35.207 20.3125 35.207C18.0688 35.207 16.25 33.3882 16.25 31.1445C16.25 28.9009 18.0688 27.082 20.3125 27.082C22.5562 27.082 24.375 28.9009 24.375 31.1445Z" fill="#156155"/>
<path d="M56.875 43.3346C56.875 44.7712 56.3043 46.149 55.2885 47.1648C54.2727 48.1806 52.8949 48.7513 51.4583 48.7513H18.9583L8.125 56.8763V18.9596C8.125 17.523 8.69568 16.1453 9.7115 15.1295C10.7273 14.1137 12.1051 13.543 13.5417 13.543H51.4583C52.8949 13.543 54.2727 14.1137 55.2885 15.1295C56.3043 16.1453 56.875 17.523 56.875 18.9596V43.3346Z" stroke="#156155" stroke-width="3" stroke-linecap="round" stroke-linejoin="round"/>
</svg>
