<svg width="18" height="18" viewBox="0 0 18 18" fill="none" xmlns="http://www.w3.org/2000/svg">
<path d="M9.00001 5.69922C7.17841 5.69922 5.69881 7.17882 5.69881 9.00042C5.69881 10.822 7.17841 12.3052 9.00001 12.3052C10.8216 12.3052 12.3048 10.822 12.3048 9.00042C12.3048 7.17882 10.8216 5.69922 9.00001 5.69922Z" fill="#9FC244"/>
<path d="M13.9824 0H4.0176C1.8036 0 0 1.8036 0 4.0176V13.9824C0 16.2 1.8036 18 4.0176 18H13.9824C16.2 18 18 16.2 18 13.9824V4.0176C18 1.8036 16.2 0 13.9824 0ZM9 14.832C5.7852 14.832 3.168 12.2148 3.168 9C3.168 5.7852 5.7852 3.1716 9 3.1716C12.2148 3.1716 14.832 5.7852 14.832 9C14.832 12.2148 12.2148 14.832 9 14.832ZM14.9544 4.23C14.274 4.23 13.7196 3.6792 13.7196 2.9988C13.7196 2.3184 14.274 1.764 14.9544 1.764C15.6348 1.764 16.1892 2.3184 16.1892 2.9988C16.1892 3.6792 15.6348 4.23 14.9544 4.23Z" fill="#9FC244"/>
</svg>
