<svg width="20" height="20" viewBox="0 0 20 20" fill="none" xmlns="http://www.w3.org/2000/svg">
<path d="M19.6 19.5968V12.5648C19.6 9.10875 18.856 6.46875 14.824 6.46875C12.88 6.46875 11.584 7.52475 11.056 8.53275H11.008V6.78075H7.19199V19.5968H11.176V13.2368C11.176 11.5568 11.488 9.94875 13.552 9.94875C15.592 9.94875 15.616 11.8448 15.616 13.3328V19.5728H19.6V19.5968Z" fill="#9FC244"/>
<path d="M0.71199 6.78125H4.69599V19.5972H0.71199V6.78125Z" fill="#9FC244"/>
<path d="M2.70399 0.398438C1.43199 0.398438 0.399994 1.43044 0.399994 2.70244C0.399994 3.97444 1.43199 5.03044 2.70399 5.03044C3.97599 5.03044 5.00799 3.97444 5.00799 2.70244C5.00799 1.43044 3.97599 0.398438 2.70399 0.398438Z" fill="#9FC244"/>
</svg>
