<svg width="40" height="40" viewBox="0 0 40 40" fill="none" xmlns="http://www.w3.org/2000/svg">
<path d="M13.3334 18.3346V13.1495C13.3334 11.4305 14.0358 9.78186 15.286 8.56635C16.5362 7.35084 18.2319 6.66797 20 6.66797C21.7682 6.66797 23.4638 7.35084 24.7141 8.56635C25.9643 9.78186 26.6667 11.4305 26.6667 13.1495V18.3346" stroke="#9FC244" stroke-width="3" stroke-linecap="round" stroke-linejoin="round"/>
<path d="M8.33337 19.9987C8.33337 19.0782 9.07957 18.332 10 18.332H30C30.9205 18.332 31.6667 19.0782 31.6667 19.9987V33.332C31.6667 34.2525 30.9205 34.9987 30 34.9987H10C9.07957 34.9987 8.33337 34.2525 8.33337 33.332V19.9987Z" stroke="#9FC244" stroke-width="3" stroke-linecap="round" stroke-linejoin="round"/>
</svg>
