<svg width="40" height="40" viewBox="0 0 40 40" fill="none" xmlns="http://www.w3.org/2000/svg">
<path d="M33.3333 25.9735C32.395 28.1976 30.9275 30.1575 29.0589 31.6819C27.1904 33.2062 24.9777 34.2485 22.6144 34.7177C20.2512 35.1868 17.8092 35.0686 15.5021 34.3732C13.1949 33.6779 11.0928 32.4266 9.37959 30.7288C7.66634 29.0311 6.3941 26.9385 5.67408 24.634C4.95407 22.3295 4.80821 19.8833 5.24926 17.5093C5.69031 15.1352 6.70483 12.9056 8.20414 11.0154C9.70344 9.12517 11.6419 7.63186 13.85 6.66602" stroke="#9FC244" stroke-width="3" stroke-linecap="round" stroke-linejoin="round"/>
<path d="M35 20C35 18.0302 34.612 16.0796 33.8582 14.2597C33.1044 12.4399 31.9995 10.7863 30.6066 9.3934C29.2137 8.00052 27.5601 6.89563 25.7403 6.14181C23.9204 5.38799 21.9698 5 20 5V20H35Z" stroke="#9FC244" stroke-width="3" stroke-linecap="round" stroke-linejoin="round"/>
</svg>
