<svg width="34" height="34" viewBox="0 0 34 34" fill="none" xmlns="http://www.w3.org/2000/svg">
<path d="M17 0C7.61214 0 0 7.61065 0 16.9993C0 26.3879 7.61139 33.9985 17 33.9985C26.3894 33.9985 34 26.3879 34 16.9993C34 7.61065 26.3894 0 17 0ZM17 5.08297C20.1064 5.08297 22.6236 7.60094 22.6236 10.7058C22.6236 13.8115 20.1064 16.3287 17 16.3287C13.8951 16.3287 11.3779 13.8115 11.3779 10.7058C11.3779 7.60094 13.8951 5.08297 17 5.08297ZM16.9963 29.554C13.8981 29.554 11.0605 28.4257 8.87187 26.5581C8.33871 26.1034 8.03105 25.4365 8.03105 24.7368C8.03105 21.5879 10.5796 19.0677 13.7293 19.0677H20.2722C23.4226 19.0677 25.9615 21.5879 25.9615 24.7368C25.9615 25.4373 25.6553 26.1026 25.1214 26.5574C22.9335 28.4257 20.0952 29.554 16.9963 29.554Z" fill="#EDEDED"/>
</svg>
