<svg width="40" height="40" viewBox="0 0 40 40" fill="none" xmlns="http://www.w3.org/2000/svg">
<path d="M8.33337 20.9164C11.6276 18.1725 15.7794 16.6699 20.0667 16.6699C24.354 16.6699 28.5058 18.1725 31.8 20.9164" stroke="#9FC244" stroke-width="3" stroke-linecap="round" stroke-linejoin="round"/>
<path d="M2.3667 15.0001C7.2374 10.7068 13.5072 8.33789 20 8.33789C26.4929 8.33789 32.7627 10.7068 37.6334 15.0001" stroke="#9FC244" stroke-width="3" stroke-linecap="round" stroke-linejoin="round"/>
<path d="M14.2167 26.8499C15.9087 25.6478 17.9328 25.002 20.0083 25.002C22.0839 25.002 24.108 25.6478 25.8 26.8499" stroke="#9FC244" stroke-width="3" stroke-linecap="round" stroke-linejoin="round"/>
<path d="M18.3334 33.3327C18.3334 32.4122 19.0796 31.666 20 31.666C20.9205 31.666 21.6667 32.4122 21.6667 33.3327C21.6667 34.2532 20.9205 34.9993 20 34.9993C19.0796 34.9993 18.3334 34.2532 18.3334 33.3327Z" stroke="#9FC244" stroke-width="3" stroke-linecap="round" stroke-linejoin="round"/>
</svg>
